<?xml version="1.0" encoding="UTF-8"?>
<svg xmlns="http://www.w3.org/2000/svg" version="1.1" viewBox="0 0 173 173">
  <defs>
    <style>
      .cls-1 {
        fill: #6a8ece;
      }
    </style>
  </defs>
  <!-- Generator: Adobe Illustrator 28.7.1, SVG Export Plug-In . SVG Version: 1.2.0 Build 142)  -->
  <g>
    <g id="Capa_2">
      <g id="Capa_1-2">
        <g>
          <path class="cls-1" d="M164.5,61.8c5.5,7.5,8.5,15.8,8.5,24.7s-3.1,17.2-8.5,24.7c-.5-7.9-2.3-16.3-5.4-24.7,3.1-8.4,4.9-16.7,5.4-24.7Z"/>
          <path class="cls-1" d="M159.7,56.2c.2,7.4-1,15.3-3.5,23.4-2.7-6-6.1-11.9-10-17.8-1.3-6.9-3.2-13.5-5.5-19.7,7.4,4,13.9,8.7,19,14.1Z"/>
          <path class="cls-1" d="M156.2,93.4c2.5,8.1,3.7,16,3.5,23.4-5.1,5.3-11.6,10.1-19,14,2.3-6.2,4.2-12.8,5.5-19.7,3.9-5.8,7.3-11.8,10-17.8Z"/>
          <path class="cls-1" d="M147.7,25.3c6.2,6.2,10,14.3,11.4,23.5-6-5.3-13.1-9.9-21.3-13.6-3.7-8.1-8.3-15.3-13.6-21.3,9.1,1.4,17.2,5.2,23.4,11.4Z"/>
          <path class="cls-1" d="M159.1,124.2c-1.4,9.1-5.2,17.2-11.4,23.5-6.2,6.2-14.3,10-23.4,11.4,5.3-6,9.9-13.1,13.6-21.3,8.1-3.7,15.3-8.3,21.3-13.6Z"/>
          <path class="cls-1" d="M147.9,74.1c2.3,4.1,4.2,8.3,5.9,12.4-1.6,4.1-3.6,8.3-5.9,12.4.4-4.1.6-8.2.6-12.4s-.2-8.3-.6-12.4Z"/>
          <path class="cls-1" d="M134.1,38.9c1.8,4.1,3.3,8.4,4.6,13-2.6-3.2-5.4-6.2-8.4-9.2s-6.1-5.8-9.2-8.4c4.5,1.3,8.9,2.9,13,4.7Z"/>
          <path class="cls-1" d="M138.7,121.1c-1.3,4.5-2.9,8.9-4.6,13-4.1,1.8-8.4,3.3-12.9,4.6,3.1-2.6,6.2-5.4,9.2-8.4s5.8-6.1,8.4-9.2Z"/>
          <path class="cls-1" d="M116.8,13.3c5.3,5.1,10.1,11.6,14.1,19-6.2-2.3-12.8-4.2-19.7-5.5-5.8-4-11.8-7.3-17.8-10,7.6-2.3,15-3.5,22.1-3.5s.9,0,1.3,0Z"/>
          <path class="cls-1" d="M130.9,140.7c-4,7.4-8.7,13.9-14.1,19-.4,0-.9,0-1.3,0-7,0-14.5-1.2-22.1-3.5,6-2.7,12-6.1,17.8-10,6.9-1.3,13.5-3.2,19.7-5.5Z"/>
          <path class="cls-1" d="M86.5,0c8.8,0,17.2,3.1,24.7,8.5-7.9.5-16.3,2.3-24.7,5.4-8.4-3.1-16.7-4.9-24.7-5.4,7.5-5.5,15.8-8.5,24.7-8.5Z"/>
          <path class="cls-1" d="M111.2,164.5c-7.5,5.4-15.8,8.5-24.7,8.5s-17.2-3.1-24.7-8.5c7.9-.5,16.3-2.3,24.7-5.4,8.4,3.1,16.7,4.9,24.7,5.4Z"/>
          <path class="cls-1" d="M98.9,25.1c-4.1-.4-8.2-.6-12.4-.6s-8.4.2-12.4.6c4.1-2.3,8.3-4.2,12.4-5.9,4.2,1.6,8.3,3.6,12.4,5.9Z"/>
          <path class="cls-1" d="M86.5,148.5c4.2,0,8.3-.2,12.4-.6-4.1,2.3-8.3,4.2-12.4,5.9-4.1-1.6-8.3-3.6-12.4-5.9,4.1.4,8.2.6,12.4.6Z"/>
          <path class="cls-1" d="M57.5,13.3c7,0,14.5,1.2,22.1,3.5-6,2.7-11.9,6-17.8,10-6.9,1.3-13.5,3.2-19.7,5.5,4-7.5,8.7-13.9,14.1-19,.5,0,.9,0,1.3,0Z"/>
          <path class="cls-1" d="M61.8,146.2c5.8,4,11.8,7.3,17.8,10-8.1,2.5-16,3.7-23.4,3.5-5.3-5.1-10.1-11.6-14-19,6.2,2.3,12.8,4.2,19.7,5.5Z"/>
          <path class="cls-1" d="M51.9,34.3c-3.2,2.6-6.2,5.4-9.2,8.4s-5.8,6.1-8.4,9.2c1.3-4.5,2.9-8.9,4.7-13,4.1-1.8,8.4-3.3,13-4.7Z"/>
          <path class="cls-1" d="M42.7,130.3c3,3,6.1,5.8,9.2,8.4-4.5-1.3-8.8-2.9-12.9-4.6-1.8-4.1-3.3-8.4-4.7-13,2.6,3.2,5.4,6.2,8.4,9.2Z"/>
          <path class="cls-1" d="M48.8,13.9c-5.3,6-9.8,13.1-13.6,21.3-8.1,3.7-15.3,8.3-21.3,13.6,1.4-9.1,5.2-17.2,11.4-23.5,6.2-6.2,14.3-10,23.5-11.4Z"/>
          <path class="cls-1" d="M35.2,137.8c3.7,8.1,8.3,15.3,13.6,21.3-9.1-1.4-17.2-5.2-23.5-11.4-6.2-6.2-10-14.3-11.4-23.5,6,5.3,13.1,9.9,21.3,13.6Z"/>
          <path class="cls-1" d="M32.3,42.1c-2.3,6.2-4.2,12.8-5.5,19.7-3.9,5.8-7.3,11.8-10,17.7-2.5-8.1-3.7-16-3.5-23.4,5.1-5.3,11.6-10.1,19-14Z"/>
          <path class="cls-1" d="M26.8,111.2c1.3,6.9,3.2,13.5,5.5,19.7-7.4-4-13.9-8.7-19-14.1-.2-7.4,1-15.3,3.5-23.4,2.7,6,6,11.9,10,17.8Z"/>
          <path class="cls-1" d="M25.1,74.1c-.4,4.1-.6,8.2-.6,12.4s.2,8.3.6,12.4c-2.3-4.1-4.2-8.3-5.9-12.4,1.6-4.1,3.6-8.3,5.9-12.4Z"/>
          <path class="cls-1" d="M8.5,61.8c.5,7.9,2.3,16.3,5.4,24.7-3.1,8.4-4.9,16.7-5.4,24.7-5.5-7.5-8.5-15.8-8.5-24.7s3.1-17.2,8.5-24.7Z"/>
          <path class="cls-1" d="M143.5,86.5c0,31.2-25.3,56.5-56.5,56.5s-56.5-25.3-56.5-56.5,25.3-56.5,56.5-56.5,56.5,25.3,56.5,56.5ZM87,41.3c-25,0-45.2,20.2-45.2,45.2s20.2,45.2,45.2,45.2,45.2-20.2,45.2-45.2-20.2-45.2-45.2-45.2Z"/>
          <path class="cls-1" d="M66.1,86.9c0-7.4,1.9-13.1,5.6-16.9,3.7-3.8,8.6-5.7,14.5-5.7s10.7,1.9,14.3,5.6c3.6,3.7,5.5,9.4,5.5,17s-1.1,10.5-3.4,14.1-5.3,6-9.3,7.3l6.6,4.6c.2.2.4.5.4.9s-.5,1.3-1.4,2.5c-.9,1.2-2.1,2.1-3.4,2.8-1.3.7-2.3,1-3,1s-1.2-.2-1.6-.7l-9.2-10.2c-4.7-.9-8.5-3.2-11.3-7.1-2.9-3.8-4.3-8.9-4.3-15.2h0ZM86,76.4c-2,0-3.7.9-5.1,2.8-1.4,1.8-2,4.4-2,7.7s.7,5.9,1.9,7.7,3,2.7,5.1,2.7,3.8-.9,5.1-2.7c1.3-1.8,2-4.4,2-7.7s-.7-5.9-2-7.7c-1.4-1.8-3-2.7-5.1-2.7h0Z"/>
        </g>
      </g>
    </g>
  </g>
</svg>