<?xml version="1.0" encoding="UTF-8"?><svg id="Capa_2" xmlns="http://www.w3.org/2000/svg" viewBox="0 0 173 173"><defs><style>.cls-1{opacity:.3;}.cls-2{fill:#6a8ece;}</style></defs><g id="Capa_1-2"><g class="cls-1"><path class="cls-2" d="M164.47,61.83c5.47,7.47,8.53,15.84,8.53,24.67s-3.06,17.2-8.53,24.67c-.5-7.95-2.31-16.28-5.41-24.67,3.1-8.39,4.91-16.72,5.41-24.67Z"/><path class="cls-2" d="M159.7,56.16c.16,7.41-1.03,15.33-3.5,23.4-2.7-5.98-6.05-11.94-9.99-17.75-1.32-6.93-3.18-13.53-5.51-19.7,7.44,3.96,13.87,8.7,19,14.05Z"/><path class="cls-2" d="M156.2,93.44c2.47,8.07,3.66,15.99,3.5,23.4-5.13,5.35-11.56,10.09-19,14.05,2.33-6.17,4.19-12.77,5.51-19.7,3.94-5.81,7.29-11.77,9.99-17.75Z"/><path class="cls-2" d="M147.67,25.33c6.23,6.25,9.98,14.32,11.4,23.46-5.97-5.26-13.15-9.86-21.26-13.6-3.74-8.11-8.33-15.29-13.59-21.26,9.13,1.43,17.21,5.17,23.45,11.4Z"/><path class="cls-2" d="M159.07,124.21c-1.42,9.14-5.17,17.21-11.4,23.46-6.24,6.23-14.32,9.98-23.45,11.4,5.26-5.97,9.85-13.15,13.59-21.26,8.11-3.74,15.29-8.34,21.26-13.6Z"/><path class="cls-2" d="M147.93,74.1c2.27,4.11,4.22,8.26,5.85,12.4-1.63,4.14-3.58,8.29-5.85,12.4.37-4.05.57-8.19.57-12.4s-.2-8.35-.57-12.4Z"/><path class="cls-2" d="M134.08,38.92c1.78,4.09,3.34,8.43,4.65,12.96-2.61-3.15-5.4-6.23-8.39-9.22s-6.07-5.78-9.22-8.39c4.53,1.31,8.87,2.87,12.96,4.65Z"/><path class="cls-2" d="M138.73,121.12c-1.31,4.53-2.87,8.87-4.65,12.96-4.09,1.78-8.41,3.33-12.94,4.64,3.14-2.61,6.22-5.4,9.2-8.38s5.78-6.07,8.39-9.22Z"/><path class="cls-2" d="M116.83,13.3c5.35,5.12,10.1,11.55,14.06,19-6.17-2.33-12.77-4.19-19.7-5.51-5.82-3.95-11.78-7.29-17.76-10,7.58-2.32,15.04-3.52,22.06-3.52.45,0,.89.02,1.34.03Z"/><path class="cls-2" d="M130.89,140.7c-3.96,7.45-8.71,13.88-14.06,19-.45.01-.89.03-1.34.03-7.02,0-14.47-1.2-22.05-3.52,5.99-2.71,11.96-6.05,17.78-10.01,6.92-1.32,13.51-3.18,19.67-5.5Z"/><path class="cls-2" d="M86.5,0c8.83,0,17.2,3.06,24.67,8.53-7.95.5-16.28,2.31-24.67,5.41-8.39-3.1-16.72-4.91-24.67-5.41,7.47-5.47,15.84-8.53,24.67-8.53Z"/><path class="cls-2" d="M111.15,164.49c-7.47,5.45-15.83,8.51-24.65,8.51s-17.18-3.06-24.65-8.51c7.94-.5,16.27-2.34,24.65-5.43,8.38,3.09,16.71,4.93,24.65,5.43Z"/><path class="cls-2" d="M98.93,25.07c-4.06-.37-8.21-.57-12.43-.57s-8.37.2-12.44.57c4.13-2.27,8.29-4.22,12.44-5.85,4.15,1.63,8.31,3.58,12.43,5.85Z"/><path class="cls-2" d="M86.5,148.5c4.21,0,8.35-.2,12.4-.57-4.12,2.27-8.27,4.22-12.41,5.85-4.14-1.63-8.3-3.58-12.42-5.85,4.06.37,8.21.57,12.43.57Z"/><path class="cls-2" d="M57.51,13.27c7.02,0,14.47,1.2,22.06,3.52-5.98,2.71-11.94,6.05-17.76,10-6.93,1.32-13.53,3.18-19.7,5.51,3.96-7.45,8.71-13.88,14.06-19,.45-.01.89-.03,1.34-.03Z"/><path class="cls-2" d="M61.78,146.2c5.82,3.96,11.78,7.3,17.77,10-8.07,2.47-15.98,3.66-23.39,3.49-5.35-5.12-10.09-11.55-14.05-18.99,6.16,2.32,12.75,4.18,19.67,5.5Z"/><path class="cls-2" d="M51.88,34.27c-3.15,2.61-6.23,5.4-9.22,8.39s-5.78,6.07-8.39,9.22c1.31-4.53,2.87-8.87,4.65-12.96,4.09-1.78,8.43-3.34,12.96-4.65Z"/><path class="cls-2" d="M42.66,130.34c2.98,2.98,6.06,5.77,9.2,8.38-4.53-1.31-8.85-2.86-12.94-4.64-1.78-4.09-3.34-8.43-4.65-12.96,2.61,3.15,5.4,6.23,8.39,9.22Z"/><path class="cls-2" d="M48.78,13.93c-5.26,5.97-9.85,13.15-13.59,21.26-8.11,3.74-15.29,8.34-21.26,13.6,1.42-9.14,5.17-17.21,11.4-23.46,6.24-6.23,14.32-9.97,23.45-11.4Z"/><path class="cls-2" d="M35.19,137.81c3.74,8.11,8.34,15.29,13.6,21.26-9.14-1.42-17.22-5.17-23.46-11.4-6.23-6.25-9.98-14.32-11.4-23.46,5.97,5.26,13.15,9.86,21.26,13.6Z"/><path class="cls-2" d="M32.3,42.11c-2.33,6.17-4.19,12.77-5.51,19.7-3.94,5.81-7.29,11.77-9.99,17.75-2.47-8.07-3.66-15.99-3.5-23.4,5.13-5.35,11.56-10.09,19-14.05Z"/><path class="cls-2" d="M26.79,111.19c1.32,6.93,3.18,13.53,5.51,19.7-7.44-3.96-13.87-8.7-19-14.05-.16-7.41,1.03-15.33,3.5-23.4,2.7,5.98,6.05,11.94,9.99,17.75Z"/><path class="cls-2" d="M25.07,74.1c-.37,4.05-.57,8.19-.57,12.4s.2,8.35.57,12.4c-2.27-4.11-4.22-8.26-5.85-12.4,1.63-4.14,3.58-8.29,5.85-12.4Z"/><path class="cls-2" d="M8.53,61.83c.5,7.95,2.31,16.28,5.41,24.67-3.1,8.39-4.91,16.72-5.41,24.67-5.47-7.47-8.53-15.84-8.53-24.67s3.06-17.2,8.53-24.67Z"/><path class="cls-2" d="M143.5,86.5c0,31.2-25.29,56.5-56.5,56.5s-56.5-25.29-56.5-56.5,25.29-56.5,56.5-56.5,56.5,25.29,56.5,56.5ZM87,41.3c-24.96,0-45.2,20.24-45.2,45.2s20.24,45.2,45.2,45.2,45.2-20.24,45.2-45.2-20.24-45.2-45.2-45.2Z"/><path class="cls-2" d="M66.06,86.95c0-7.44,1.87-13.06,5.61-16.87,3.74-3.8,8.57-5.71,14.49-5.71s10.69,1.87,14.33,5.61c3.63,3.74,5.46,9.4,5.46,16.96,0,5.81-1.13,10.5-3.39,14.05-2.26,3.55-5.35,6-9.28,7.34l6.64,4.58c.25.16.38.47.38.91s-.47,1.27-1.41,2.48c-.94,1.21-2.07,2.14-3.38,2.79-1.32.65-2.31.97-2.98.97s-1.21-.23-1.63-.69l-9.16-10.16c-4.68-.88-8.47-3.23-11.35-7.06-2.89-3.82-4.33-8.89-4.33-15.21ZM85.99,76.42c-2.01,0-3.69.92-5.05,2.76-1.36,1.84-2.04,4.42-2.04,7.74s.65,5.87,1.94,7.65c1.29,1.78,3,2.67,5.11,2.67s3.83-.9,5.14-2.7c1.32-1.8,1.98-4.37,1.98-7.71s-.68-5.91-2.04-7.72c-1.36-1.8-3.04-2.69-5.05-2.69Z"/></g></g></svg>